<?xml version="1.0" standalone="no"?>
<!DOCTYPE svg PUBLIC "-//W3C//DTD SVG 20010904//EN"
 "http://www.w3.org/TR/2001/REC-SVG-20010904/DTD/svg10.dtd">
<svg version="1.0" xmlns="http://www.w3.org/2000/svg"
 width="1500.000000pt" height="1600.000000pt" viewBox="0 0 1500.000000 1600.000000"
 preserveAspectRatio="xMidYMid meet">

<g transform="translate(0.000000,1600.000000) scale(0.100000,-0.100000)"
fill="#000000" stroke="none">
<path d="M3955 14899 c-282 -4 -460 -10 -475 -16 -15 -6 -57 -14 -95 -18 -39
-4 -74 -11 -80 -15 -5 -4 -35 -11 -65 -15 -30 -4 -59 -11 -65 -15 -5 -4 -30
-11 -55 -15 -25 -4 -49 -11 -55 -15 -5 -4 -26 -11 -45 -15 -19 -4 -39 -11 -45
-15 -5 -4 -35 -15 -65 -24 -30 -10 -68 -24 -85 -31 -16 -8 -52 -23 -80 -35
-84 -36 -177 -83 -251 -127 -39 -24 -76 -43 -82 -43 -6 0 -12 -3 -14 -7 -4 -9
-65 -53 -73 -53 -3 0 -11 -5 -18 -10 -46 -39 -61 -50 -69 -50 -4 0 -16 -8 -27
-17 -21 -21 -71 -61 -89 -72 -41 -25 -270 -245 -346 -331 -22 -25 -62 -74 -89
-110 -27 -36 -53 -66 -58 -68 -5 -2 -9 -8 -9 -12 0 -5 -23 -39 -50 -76 -28
-37 -50 -73 -50 -80 0 -8 -4 -14 -10 -14 -5 0 -10 -4 -10 -9 0 -5 -16 -33 -35
-62 -19 -30 -35 -59 -35 -65 0 -7 -3 -14 -7 -16 -10 -4 -83 -151 -83 -166 0
-7 -4 -12 -10 -12 -5 0 -10 -8 -10 -18 0 -10 -7 -27 -15 -38 -8 -10 -15 -26
-15 -34 0 -8 -9 -33 -20 -55 -11 -22 -19 -48 -20 -57 0 -9 -4 -19 -9 -22 -5
-3 -12 -23 -16 -43 -4 -21 -10 -42 -15 -48 -4 -5 -11 -28 -15 -50 -4 -22 -10
-44 -15 -50 -4 -5 -11 -32 -15 -60 -4 -27 -10 -54 -13 -60 -9 -12 -28 -116
-49 -260 -14 -97 -16 -316 -20 -1806 -4 -1856 -7 -1742 53 -1703 25 17 27 17
40 -1 19 -25 18 -33 -6 -47 -28 -18 -25 -30 16 -88 41 -56 62 -71 90 -64 12 3
27 -3 39 -16 19 -21 19 -22 0 -33 -65 -39 -104 -22 -170 71 -27 40 -53 72 -57
72 -5 0 -8 -23 -8 -50 0 -46 4 -54 40 -89 25 -24 40 -47 40 -62 0 -30 -33 -84
-59 -99 l-21 -11 0 -1911 c0 -1051 2 -1909 4 -1907 8 8 14 108 15 233 1 130 9
155 12 38 2 -69 3 -72 19 -55 10 10 15 22 12 27 -2 4 -8 2 -13 -5 -7 -12 -9
-12 -9 -1 0 8 9 16 20 19 23 6 26 23 8 41 -9 9 -9 12 0 12 7 0 12 -4 12 -9 0
-16 38 -20 44 -4 4 9 1 12 -7 8 -6 -4 -2 2 10 13 26 23 31 72 8 72 -8 0 -15 5
-15 10 0 6 6 10 14 10 8 0 16 7 20 15 6 17 46 21 46 4 0 -5 4 -8 9 -5 5 3 14
-1 21 -9 7 -8 17 -12 22 -9 5 3 2 14 -8 25 -9 10 -13 19 -9 19 4 0 1 8 -8 18
-18 20 -13 32 11 32 9 0 12 -6 8 -15 -4 -13 -2 -14 14 -5 11 6 19 14 19 18 -5
32 3 52 21 52 11 0 20 4 20 10 0 5 -8 7 -17 4 -15 -5 -16 -4 -3 5 8 5 25 8 37
4 14 -3 23 -1 23 6 0 6 -7 11 -15 11 -25 0 -17 19 18 37 17 9 35 17 39 18 4 0
13 6 20 13 10 10 10 14 -1 21 -11 7 -9 12 10 21 31 17 58 51 59 73 0 9 7 17
15 17 19 0 19 -5 -1 -36 -13 -19 -13 -23 -3 -19 8 3 19 15 24 28 6 12 16 22
24 22 8 0 19 15 26 34 9 29 16 34 49 37 43 4 62 14 27 14 -12 0 -19 4 -16 10
4 6 12 7 18 3 7 -3 4 3 -6 14 -19 22 -10 37 16 27 11 -4 17 4 22 26 5 23 10
28 19 21 8 -7 24 -7 44 -1 44 12 46 13 48 28 3 16 -1 15 -21 -4 -9 -9 -19 -13
-23 -9 -13 13 30 35 56 28 21 -5 24 -3 19 10 -9 23 5 52 23 52 8 0 14 6 12 12
-1 7 5 13 13 13 9 0 12 -6 9 -15 -4 -10 0 -15 15 -15 24 0 27 10 8 29 -10 11
-9 13 5 8 12 -4 15 -2 11 9 -3 7 0 14 7 14 6 0 9 4 6 9 -11 17 25 34 70 34 24
0 44 4 44 9 0 4 -11 8 -25 8 -14 0 -25 5 -25 10 0 6 9 10 20 10 11 0 20 5 20
10 0 6 6 10 14 10 9 0 12 -7 9 -20 -3 -11 0 -20 6 -20 6 0 11 4 11 9 0 5 10
11 23 13 12 2 22 8 22 15 0 6 10 20 23 31 13 11 23 23 22 26 -1 4 1 12 3 19 4
9 8 9 15 -1 8 -12 14 -11 38 2 16 8 25 15 20 16 -5 0 -3 6 3 14 6 8 10 20 9
27 -4 19 52 25 63 7 6 -9 9 -6 9 11 0 18 4 22 20 18 11 -3 22 -1 25 3 3 4 14
6 25 3 12 -3 20 0 20 6 0 7 4 9 10 6 5 -3 10 -2 10 3 0 6 -7 12 -15 16 -12 4
-13 10 -3 30 6 14 15 23 20 20 4 -3 6 -10 3 -15 -12 -19 7 -30 22 -12 8 10 11
12 8 5 -6 -11 -3 -12 14 -3 11 7 21 14 21 17 0 3 -5 2 -12 -2 -8 -5 -9 -2 -5
10 4 10 7 19 7 22 0 2 14 1 30 -2 25 -6 30 -3 30 14 0 21 22 35 44 26 8 -3 16
4 19 17 4 16 11 20 26 16 23 -6 29 8 9 17 -7 3 -4 4 7 3 11 -1 23 -6 27 -12 4
-6 9 -1 10 10 1 11 5 -23 8 -75 3 -52 7 902 8 2120 1 1485 5 2261 13 2355 17
219 50 409 103 585 9 30 21 69 26 85 15 53 40 119 50 137 6 10 10 22 10 28 0
5 16 43 35 84 19 41 35 80 35 86 0 5 4 10 9 10 5 0 12 12 16 27 3 15 10 30 13
33 4 3 18 28 31 55 13 28 34 64 46 80 12 17 25 40 29 53 4 12 12 22 17 22 5 0
9 5 9 10 0 9 35 65 50 80 3 3 20 28 39 55 19 28 39 55 45 60 6 6 29 33 51 60
22 28 49 61 60 75 25 31 211 217 251 250 16 14 51 43 79 65 27 22 55 45 62 50
29 24 43 34 138 98 56 37 106 67 113 67 7 0 12 3 12 8 0 4 21 19 48 32 26 14
49 28 52 31 5 6 144 73 195 94 62 26 81 34 127 54 26 12 56 21 67 21 12 0 21
4 21 9 0 5 19 12 43 16 23 4 47 11 52 15 10 7 45 17 165 44 30 7 62 15 70 19
8 3 53 11 100 17 47 6 114 15 150 20 36 5 245 9 466 9 302 1 403 4 412 13 10
10 17 10 33 0 25 -16 37 -8 19 13 -10 12 -9 16 4 21 11 4 24 -3 37 -20 25 -32
37 -33 41 -4 5 34 38 37 38 4 0 -21 5 -26 25 -26 30 0 31 4 5 37 -24 30 -25
43 -6 43 8 0 29 -18 46 -40 54 -68 92 -45 41 25 -33 46 -39 65 -18 64 14 0 97
-102 97 -118 0 -8 481 -11 1598 -12 878 0 1626 -4 1662 -9 36 -5 103 -13 150
-19 47 -7 92 -15 101 -20 9 -5 41 -12 73 -16 31 -4 59 -11 62 -16 3 -5 13 -9
23 -9 22 0 144 -37 188 -56 17 -8 38 -14 46 -14 9 0 18 -4 21 -9 3 -5 22 -12
41 -15 19 -4 35 -11 35 -16 0 -6 7 -10 16 -10 9 0 28 -6 42 -14 15 -7 63 -31
107 -52 44 -21 108 -55 143 -76 34 -21 65 -38 68 -38 8 0 69 -44 72 -52 2 -5
8 -8 13 -8 9 0 65 -36 79 -50 3 -3 21 -16 40 -30 44 -30 54 -38 91 -72 16 -16
34 -28 38 -28 13 0 289 -275 336 -335 22 -27 46 -56 53 -64 7 -8 20 -24 28
-36 8 -13 28 -25 44 -29 26 -5 29 -9 24 -33 -4 -20 1 -35 15 -52 12 -13 21
-30 21 -38 0 -11 10 -14 38 -11 l37 3 0 -55 c1 -46 7 -66 38 -117 20 -33 37
-66 37 -72 0 -6 5 -11 10 -11 6 0 10 -5 10 -11 0 -6 15 -43 34 -82 46 -99 61
-134 81 -192 10 -27 24 -64 31 -82 8 -17 14 -40 14 -50 0 -10 4 -23 9 -28 9
-10 22 -59 43 -160 6 -27 14 -59 19 -70 5 -11 14 -56 20 -100 6 -44 16 -109
22 -145 15 -82 11 -4686 -4 -4795 -28 -203 -31 -223 -66 -355 -21 -82 -85
-284 -93 -295 -4 -5 -11 -25 -15 -42 -3 -18 -11 -33 -16 -33 -5 0 -9 -7 -9
-16 0 -20 -82 -189 -137 -282 -24 -41 -43 -76 -43 -78 0 -8 -44 -69 -52 -72
-5 -2 -8 -8 -8 -14 0 -5 -8 -20 -17 -33 -10 -12 -25 -33 -33 -45 -8 -12 -22
-30 -30 -40 -8 -10 -22 -28 -30 -40 -8 -12 -22 -30 -30 -40 -87 -103 -118
-137 -200 -220 -126 -126 -201 -193 -293 -258 -57 -41 -61 -44 -96 -72 -13
-11 -30 -20 -37 -20 -7 0 -14 -3 -16 -8 -5 -10 -66 -52 -77 -52 -5 0 -11 -3
-13 -7 -3 -9 -77 -50 -193 -107 -44 -21 -92 -45 -107 -52 -14 -8 -33 -14 -42
-14 -9 0 -16 -4 -16 -9 0 -5 -14 -12 -31 -16 -17 -4 -42 -13 -57 -21 -15 -8
-35 -14 -44 -14 -9 0 -19 -4 -22 -9 -4 -5 -24 -12 -46 -16 -22 -4 -42 -10 -45
-15 -3 -4 -26 -11 -52 -15 -27 -4 -52 -10 -58 -15 -11 -8 -91 -25 -195 -41
-36 -6 -78 -14 -95 -19 -16 -5 -82 -12 -145 -15 -120 -6 -277 -15 -320 -19
-14 -2 -81 -4 -150 -6 l-125 -4 100 -6 c55 -3 82 -7 60 -8 -24 -1 -35 -5 -28
-10 7 -4 11 -18 8 -30 -2 -13 0 -20 6 -17 5 4 9 -1 9 -9 0 -22 17 -28 40 -16
31 17 24 -4 -12 -33 -17 -15 -29 -30 -25 -33 4 -4 13 -1 22 6 8 7 15 8 15 2 0
-5 -7 -15 -15 -22 -20 -17 -19 -44 3 -61 15 -13 16 -12 3 4 -11 14 -11 21 -3
29 9 9 12 9 12 0 0 -7 5 -12 11 -12 5 0 7 5 4 10 -3 6 -2 10 4 10 16 0 22 -18
9 -23 -10 -3 -11 -9 0 -26 16 -27 15 -31 -5 -31 -14 0 -15 -2 -4 -9 8 -6 12
-18 8 -31 -3 -13 0 -29 9 -37 12 -13 14 -10 15 19 l1 33 8 -28 c5 -17 5 -39 0
-53 -14 -36 -8 -122 8 -117 6 3 12 16 12 30 0 13 -4 22 -9 19 -5 -4 -7 3 -4
15 5 19 7 17 20 -12 13 -30 12 -37 -3 -63 -9 -16 -12 -26 -5 -22 6 4 11 3 11
-3 0 -5 7 -16 15 -25 14 -14 14 -17 -5 -36 -24 -24 -26 -40 -5 -40 21 0 19
-30 -2 -46 -17 -13 -17 -13 0 -14 11 0 15 -5 11 -11 -3 -6 6 -22 21 -35 24
-21 26 -26 14 -41 -8 -10 -18 -21 -23 -25 -5 -3 -2 -13 7 -22 20 -20 34 -21
17 -1 -10 12 -9 18 4 31 10 9 20 13 24 10 3 -4 0 -11 -7 -15 -8 -5 -11 -17 -6
-30 4 -12 2 -21 -4 -21 -6 0 -11 -4 -11 -10 0 -5 9 -10 20 -10 11 0 20 -6 20
-14 0 -9 -7 -12 -20 -9 -24 6 -26 -3 -5 -23 19 -19 20 -63 2 -70 -9 -3 -12
-16 -9 -34 2 -17 8 -27 13 -25 4 3 6 -8 4 -25 -2 -16 1 -33 8 -37 7 -4 4 -9
-7 -13 -25 -8 -16 -25 14 -25 17 0 25 -6 25 -17 0 -10 -4 -18 -10 -17 -5 1 -9
5 -8 10 2 4 -3 6 -10 3 -20 -7 -18 -64 3 -64 9 0 21 -14 28 -33 15 -41 15 -47
2 -47 -5 0 -10 10 -10 22 0 21 -1 21 -17 5 -16 -16 -16 -18 -1 -29 9 -7 18
-26 20 -43 2 -17 8 -29 16 -27 19 3 14 -9 -15 -40 -23 -24 -25 -31 -13 -38 8
-5 15 -19 15 -32 0 -13 6 -23 13 -24 64 -7 38 -9 -153 -14 -188 -5 843 -11
1725 -11 276 1 396 8 545 36 139 25 290 61 316 75 9 5 34 12 54 16 21 4 50 13
64 20 14 8 32 14 39 14 7 0 20 4 30 10 9 5 45 21 79 35 35 14 87 36 117 50 30
14 59 25 65 25 5 0 11 3 13 8 2 4 17 14 33 23 75 38 121 65 133 77 7 6 18 12
23 12 5 0 15 5 22 11 11 10 121 83 155 104 10 6 19 13 22 16 3 4 34 29 70 56
36 27 85 67 110 89 84 73 330 326 330 340 0 2 8 12 18 22 9 10 24 29 32 41 8
13 23 33 33 44 22 26 138 201 157 237 7 14 16 27 19 30 8 6 123 240 151 305
11 28 24 57 29 65 5 9 12 30 15 48 4 17 12 34 17 37 5 4 9 15 9 27 0 11 6 34
14 51 8 18 17 43 20 57 4 14 16 59 27 100 23 86 45 194 67 330 13 82 15 326
19 1816 l3 1720 -36 -4 c-34 -4 -41 0 -99 62 -39 41 -68 64 -77 61 -21 -8 -55
32 -40 47 9 9 6 18 -14 39 -21 22 -25 33 -19 58 8 40 17 39 49 -4 15 -19 33
-35 40 -35 7 0 25 13 41 30 l29 30 -22 23 c-23 25 -28 52 -12 77 8 12 15 9 44
-19 l36 -35 25 24 c20 19 27 21 40 10 14 -11 15 187 12 1966 -4 1747 -6 1992
-20 2094 -20 142 -40 252 -49 265 -3 6 -9 33 -13 60 -4 28 -11 55 -15 60 -4 6
-11 26 -15 45 -8 40 -32 117 -46 142 -5 10 -9 23 -9 30 -1 7 -9 31 -20 53 -11
22 -19 48 -20 57 0 9 -4 19 -9 23 -5 3 -12 19 -16 35 -4 17 -10 30 -15 30 -5
0 -11 14 -15 30 -4 17 -10 30 -15 30 -5 0 -11 14 -15 30 -4 17 -10 30 -15 30
-4 0 -11 12 -15 27 -3 15 -10 30 -13 33 -4 3 -16 22 -26 43 -11 21 -28 48 -38
59 -10 12 -18 27 -18 35 0 7 -4 13 -10 13 -5 0 -10 6 -10 14 0 7 -22 43 -50
80 -27 37 -50 69 -50 71 0 2 -13 19 -30 37 -49 54 -35 8 16 -53 122 -143 116
-132 82 -150 -20 -11 -26 -8 -63 36 -22 27 -84 100 -138 163 l-98 115 21 21
22 21 39 -45 c29 -33 42 -41 48 -32 9 14 -35 65 -180 211 -98 99 -184 176
-260 233 -30 22 -55 44 -57 49 -2 5 -8 9 -13 9 -11 0 -72 42 -77 53 -2 4 -8 7
-13 7 -11 0 -72 42 -77 53 -2 4 -8 7 -14 7 -6 0 -43 19 -82 43 -74 44 -167 91
-251 127 -27 12 -66 28 -85 36 -19 9 -44 19 -55 24 -11 5 -35 12 -52 15 -18 4
-33 11 -33 16 0 5 -12 9 -27 9 -16 0 -40 6 -55 14 -14 8 -46 17 -70 21 -24 4
-47 11 -53 15 -5 4 -35 11 -65 15 -30 4 -59 10 -65 14 -13 8 -142 28 -260 41
-55 5 -1298 9 -3228 10 -2790 0 -3141 -1 -3160 -15 -29 -21 -70 -19 -114 5
-43 23 -49 20 -32 -11 22 -41 13 -81 -23 -112 l-32 -27 -26 26 -25 25 29 23
28 24 -18 31 c-10 17 -21 31 -24 31 -44 4 -130 4 -130 1 0 -3 10 -15 22 -28
l22 -23 -22 -23 -23 -22 -20 25 c-11 14 -28 36 -37 50 -15 22 -24 26 -48 21
-4 0 0 -8 7 -17 11 -14 10 -19 -10 -35 -26 -21 -25 -23 32 -93 37 -44 44 -48
74 -43 26 5 36 1 48 -16 14 -20 14 -23 -6 -39 -24 -20 -67 -23 -101 -7 -13 6
-43 37 -68 70 -30 39 -51 58 -62 55 -24 -5 -62 36 -46 52 9 9 7 17 -9 34 -11
13 -22 28 -24 33 -3 7 -158 8 -454 4z m479 -135 c10 -26 7 -44 -8 -44 -20 0
-76 -49 -76 -65 0 -26 20 -26 75 0 60 29 83 27 115 -8 51 -54 0 -149 -103
-192 -39 -16 -47 -12 -47 21 0 16 10 29 33 40 41 21 77 54 77 71 0 24 -27 25
-69 4 -70 -36 -124 -24 -144 32 -11 31 23 97 66 128 45 32 72 37 81 13z m-175
-143 c8 -14 6 -23 -9 -36 -37 -34 -34 -51 24 -130 31 -41 56 -79 56 -84 0 -9
-50 -45 -54 -39 -95 124 -116 160 -116 197 0 24 8 49 22 67 38 49 60 57 77 25z
m6679 -47 c38 -11 25 -48 -18 -54 -31 -4 -35 -9 -38 -37 -3 -29 -7 -33 -34
-33 -23 0 -29 4 -24 16 3 9 6 27 6 40 0 29 41 74 67 74 10 0 28 -3 41 -6z
m-3318 -38 c0 -21 -5 -25 -37 -28 -35 -3 -38 -6 -41 -35 -3 -27 -7 -33 -28
-33 -27 0 -31 18 -13 69 13 36 36 49 87 50 27 1 32 -2 32 -23z m-3491 -75 c11
-11 28 -32 37 -47 l18 -27 -39 -31 c-77 -61 -98 -83 -91 -94 19 -31 82 1 99
49 3 9 17 19 31 21 23 5 26 2 26 -21 -1 -39 -22 -70 -70 -102 -71 -48 -109
-36 -170 55 -44 65 -49 97 -22 139 47 71 139 100 181 58z m6893 -46 c-6 -66
-45 -100 -102 -89 -23 5 -30 12 -30 30 0 21 5 24 34 24 35 0 46 13 46 51 0 16
6 20 28 17 23 -3 27 -7 24 -33z m-3332 -11 c0 -50 -47 -97 -92 -92 -25 2 -34
8 -36 25 -3 19 2 22 35 25 32 3 38 7 41 28 5 41 10 50 32 50 16 0 20 -6 20
-36z m-3905 -54 l27 -40 30 21 c28 21 30 21 43 3 19 -25 19 -27 -10 -54 l-24
-23 29 -41 c43 -63 56 -72 91 -59 25 10 31 9 44 -10 15 -20 14 -24 -10 -44
-27 -24 -74 -30 -104 -13 -10 5 -37 34 -60 65 -23 30 -46 55 -52 55 -6 0 -26
-12 -44 -26 l-34 -26 40 -53 c45 -60 61 -70 92 -54 17 10 24 8 40 -12 19 -23
19 -24 -3 -41 -58 -47 -99 -34 -173 57 -33 41 -54 59 -67 57 -22 -4 -43 29
-34 52 3 9 -1 27 -10 41 -15 23 -15 27 0 57 l17 32 23 -29 c13 -17 24 -33 24
-37 0 -16 36 -6 65 17 30 24 30 24 12 54 -16 28 -17 33 -2 61 8 16 17 30 19
30 2 0 16 -18 31 -40z m-126 -330 c80 -106 83 -112 70 -136 -18 -35 -74 -82
-104 -90 -43 -11 -82 15 -161 108 -72 84 -75 90 -58 103 11 8 24 15 31 15 6 0
41 -36 77 -80 47 -57 73 -80 89 -80 27 1 57 22 57 42 0 8 -32 54 -71 103 l-71
88 23 18 c13 10 26 19 29 19 3 0 43 -50 89 -110z m-384 -122 c38 34 83 41 121
19 11 -7 54 -49 94 -95 70 -80 72 -83 55 -102 -10 -11 -21 -20 -24 -20 -4 0
-36 34 -71 76 -79 92 -93 101 -126 79 -44 -29 -40 -41 42 -131 63 -70 76 -89
67 -102 -5 -10 -16 -18 -24 -20 -8 -1 -77 66 -153 149 l-140 152 24 19 23 19
38 -37 38 -37 36 31z m9947 -133 c6 -14 9 -26 7 -28 -2 -1 -21 -10 -41 -20
-29 -13 -38 -22 -38 -42 0 -30 20 -32 73 -10 54 22 75 19 113 -19 55 -55 44
-120 -28 -164 -60 -36 -75 -36 -86 -2 -10 28 -9 31 21 44 41 17 71 51 64 71
-8 19 -35 19 -80 0 -20 -8 -46 -15 -58 -15 -27 0 -89 62 -89 89 0 35 28 80 63
101 43 27 65 25 79 -5z m-10032 -4 c14 -27 13 -41 -4 -41 -22 0 -66 -40 -66
-61 0 -26 28 -25 85 3 l46 23 37 -20 c44 -24 65 -73 50 -117 -19 -55 -119
-118 -139 -87 -17 26 -9 44 27 64 39 21 59 49 50 71 -7 19 -29 18 -73 -6 -66
-35 -118 -21 -143 39 -10 26 -9 36 6 68 19 37 74 83 100 83 7 0 18 -9 24 -19z
m3458 -104 c2 -10 -3 -17 -12 -17 -18 0 -29 16 -21 31 9 14 29 6 33 -14z m75
-68 c51 -55 57 -69 29 -69 -23 0 -116 95 -108 109 13 20 32 11 79 -40z m-91
-21 c3 -28 9 -34 46 -48 56 -19 54 -36 -4 -33 l-45 3 21 -27 c15 -19 18 -29 9
-37 -8 -8 -30 9 -80 63 -66 71 -83 101 -57 101 7 0 27 -14 45 -32 l33 -32 0
37 c0 48 27 52 32 5z m-87 -88 c0 -8 -9 -15 -19 -15 -11 0 -21 -6 -24 -13 -3
-9 6 -11 37 -6 47 8 71 -6 71 -42 0 -30 -41 -58 -70 -49 -26 8 -21 28 9 35 35
8 24 25 -15 21 -19 -1 -42 3 -50 9 -17 15 -18 52 -2 68 17 17 63 11 63 -8z
m-87 -75 c60 -72 76 -105 50 -105 -14 0 -138 152 -138 169 0 27 30 5 88 -64z
m-3888 -350 c0 -22 -4 -25 -34 -25 -31 0 -34 -3 -40 -35 -5 -26 -12 -35 -26
-35 -16 0 -20 7 -20 38 0 20 4 42 8 48 13 19 46 33 80 34 28 0 32 -3 32 -25z
m10048 -22 c-2 -23 -8 -29 -35 -31 -28 -3 -32 -7 -35 -35 -3 -27 -8 -33 -32
-35 -29 -4 -29 -3 -23 40 7 54 43 88 93 88 33 0 35 -2 32 -27z m-9972 -120
c-7 -41 -46 -83 -76 -83 -32 0 -50 11 -50 31 0 15 7 19 34 19 35 0 46 13 46
51 0 14 7 19 26 19 25 0 26 -2 20 -37z m10044 -3 c0 -37 -23 -85 -45 -94 -9
-3 -32 -6 -51 -6 -33 0 -35 2 -32 28 2 22 8 28 34 30 28 3 33 8 38 38 6 28 11
34 31 34 21 0 25 -5 25 -30z m-790 -475 c10 -12 10 -18 0 -30 -25 -30 -61 -7
-46 30 3 8 12 15 19 15 8 0 20 -7 27 -15z m-78 -127 l3 -83 98 -19 98 -19 -23
-25 c-20 -21 -29 -23 -73 -18 -27 3 -60 9 -72 12 -32 9 -31 -25 2 -56 30 -29
31 -44 4 -63 -19 -14 -26 -9 -122 96 -174 188 -169 182 -148 201 9 9 22 16 27
16 5 0 39 -32 76 -72 l67 -73 1 69 c0 57 4 74 22 93 12 13 25 23 29 23 5 0 9
-37 11 -82z m-9282 -2206 c29 -13 22 -34 -10 -30 -34 3 -50 -13 -50 -49 0 -14
-6 -23 -15 -23 -11 0 -15 11 -15 39 0 22 6 44 15 51 8 7 15 9 15 4 0 -4 5 -3
12 4 13 13 25 14 48 4z m10060 -41 c0 -26 -4 -30 -32 -33 -29 -3 -33 -7 -36
-35 -3 -27 -7 -33 -28 -33 -22 0 -24 4 -24 45 0 59 25 85 80 85 38 0 40 -2 40
-29z m-9960 -120 c0 -50 -21 -71 -70 -71 -32 0 -37 3 -33 18 3 13 11 18 27 15
29 -6 50 20 44 52 -4 19 -1 25 13 25 15 0 19 -8 19 -39z m10040 -16 c0 -59
-25 -85 -81 -85 -38 0 -40 1 -37 27 2 22 9 29 33 33 23 4 30 11 32 30 0 14 1
28 2 33 1 4 12 7 26 7 23 0 25 -4 25 -45z m-10802 -457 c2 -13 -3 -18 -17 -18
-12 0 -21 5 -21 11 0 6 7 9 15 5 8 -3 15 -1 15 4 0 5 -10 11 -22 13 -20 5 -20
5 2 4 15 -1 26 -9 28 -19z m-60 -211 c15 -3 55 -9 90 -13 34 -3 62 -10 62 -15
0 -15 -53 -49 -69 -45 -9 3 -40 8 -68 11 -48 6 -53 5 -53 -13 0 -11 7 -25 16
-32 32 -27 34 -46 10 -69 l-23 -22 -114 148 c-63 81 -116 151 -118 156 -3 8
27 36 40 37 3 0 35 -37 70 -81 l64 -82 6 71 c4 57 10 77 30 98 l24 26 3 -85
c3 -83 3 -85 30 -90z m-200 -42 c3 -2 0 -16 -6 -30 -9 -20 -17 -24 -36 -19
-32 8 -79 -35 -69 -63 11 -30 65 -101 81 -108 21 -8 66 27 70 54 2 12 14 26
28 32 35 13 34 13 34 -22 0 -79 -95 -150 -165 -123 -25 10 -106 130 -112 168
-10 64 65 132 136 122 18 -3 36 -8 39 -11z m-296 -171 c11 -23 9 -28 -17 -48
l-29 -23 23 -37 c23 -36 23 -38 5 -51 -27 -20 -30 -19 -59 22 -24 36 -32 87
-17 108 9 14 65 54 75 55 4 0 13 -12 19 -26z m167 -82 c35 -53 32 -99 -10
-134 -40 -34 -50 -35 -68 -6 -12 20 -11 24 13 44 31 28 32 38 5 72 l-20 27 21
17 c30 24 31 23 59 -20z m12241 -888 l93 -105 -29 -42 c-17 -23 -49 -51 -76
-65 -66 -34 -89 -22 -178 90 -67 86 -70 92 -54 109 10 11 21 19 25 19 4 0 38
-38 75 -85 46 -59 74 -85 88 -85 26 0 66 26 66 43 0 7 -34 52 -75 101 -72 84
-75 90 -59 107 10 11 20 19 24 19 4 0 49 -48 100 -106z m-450 -99 l33 -44 34
29 c38 34 80 39 121 14 15 -9 56 -54 91 -101 l65 -85 -24 -18 c-14 -10 -28
-16 -32 -14 -4 3 -32 40 -63 84 -30 43 -65 82 -76 85 -24 8 -69 -19 -69 -40 0
-8 28 -55 62 -105 60 -87 61 -90 43 -105 -11 -8 -24 -14 -30 -15 -5 0 -32 34
-59 75 -26 41 -77 114 -113 162 l-65 87 22 18 c12 10 23 18 24 18 1 0 17 -20
36 -45z m-30 -122 c0 -5 3 -18 6 -30 5 -17 2 -23 -11 -23 -23 0 -73 -30 -80
-48 -3 -8 0 -21 6 -28 9 -11 20 -9 62 7 56 22 87 19 117 -11 46 -46 11 -129
-71 -170 -54 -28 -79 -26 -79 5 0 19 8 28 37 40 44 19 73 43 73 62 0 24 -30
26 -84 8 -46 -16 -56 -16 -82 -4 -42 20 -54 75 -27 120 27 47 133 103 133 72z
m-10707 -723 c7 -26 -4 -38 -33 -36 -22 1 -25 -4 -28 -37 -3 -34 -6 -37 -25
-31 -29 9 -37 22 -37 60 0 30 20 57 49 66 28 8 69 -4 74 -22z m89 -144 c12
-58 -9 -86 -66 -86 -37 0 -45 4 -50 23 -9 35 -8 37 30 37 35 0 36 1 31 29 -7
34 0 43 27 39 15 -2 22 -14 28 -42z m10023 6 c-3 -3 -11 0 -18 7 -9 10 -8 11
6 5 10 -3 15 -9 12 -12z m-10195 -832 c0 -5 -7 -7 -15 -4 -8 4 -15 8 -15 10 0
2 7 4 15 4 8 0 15 -4 15 -10z m-165 -100 c-27 -12 -35 -12 -35 0 0 6 12 10 28
9 24 0 25 -1 7 -9z m-75 -53 c-25 -23 -60 -32 -60 -15 0 4 6 8 14 8 7 0 19 7
26 15 7 8 20 15 29 15 12 0 10 -6 -9 -23z m-330 -237 c0 -5 -4 -10 -10 -10 -5
0 -10 5 -10 10 0 6 5 10 10 10 6 0 10 -4 10 -10z m-370 -320 c0 -5 -5 -10 -11
-10 -5 0 -7 5 -4 10 3 6 8 10 11 10 2 0 4 -4 4 -10z m-55 -50 c3 -5 -1 -10
-10 -10 -9 0 -13 5 -10 10 3 6 8 10 10 10 2 0 7 -4 10 -10z m11105 -1251 c0
-16 -5 -20 -19 -16 -29 7 -51 -11 -51 -43 0 -23 -5 -30 -20 -30 -17 0 -20 7
-20 39 0 50 21 71 71 71 33 0 39 -3 39 -21z m94 -124 c7 -25 -7 -64 -28 -77
-19 -13 -76 -9 -76 5 0 7 15 17 33 22 28 9 32 14 29 43 -2 26 2 32 17 32 12 0
21 -9 25 -25z m-3391 -412 c-7 -2 -19 -2 -25 0 -7 3 -2 5 12 5 14 0 19 -2 13
-5z m162 -673 c8 -13 -5 -13 -25 0 -13 8 -13 10 2 10 9 0 20 -4 23 -10z m1473
-252 c3 -26 1 -28 -33 -28 -35 0 -36 -1 -33 -32 3 -29 0 -33 -24 -36 -27 -3
-28 -2 -28 42 0 61 26 88 78 84 32 -3 37 -7 40 -30z m-1428 -42 c0 -8 -4 -18
-10 -21 -5 -3 -10 3 -10 14 0 12 5 21 10 21 6 0 10 -6 10 -14z m1514 -72 c23
-60 -7 -104 -71 -104 -41 0 -43 2 -43 28 0 26 3 28 30 24 29 -4 30 -3 30 32 0
31 3 36 24 36 13 0 27 -7 30 -16z m-1504 -138 c0 -3 -4 -8 -10 -11 -5 -3 -10
-1 -10 4 0 6 5 11 10 11 6 0 10 -2 10 -4z"/>
<path d="M4026 14399 c-26 -21 -35 -62 -16 -74 5 -3 28 8 50 26 38 31 39 33
23 51 -20 23 -24 23 -57 -3z"/>
<path d="M2462 10050 c0 -14 2 -19 5 -12 2 6 2 18 0 25 -3 6 -5 1 -5 -13z"/>
<path d="M4484 14899 c-5 -9 18 -17 34 -12 6 3 12 9 12 13 0 10 -39 9 -46 -1z"/>
<path d="M5434 12525 c9 -13 16 -29 16 -35 0 -19 -28 -10 -49 15 -17 23 -61
43 -61 28 0 -3 16 -23 35 -45 33 -35 38 -58 15 -58 -5 0 -21 -12 -35 -26 -24
-24 -28 -25 -48 -11 -30 20 -33 44 -9 77 12 15 18 30 15 34 -9 8 -33 -14 -33
-30 0 -8 -7 -14 -15 -14 -18 0 -20 41 -4 57 13 13 -53 8 -111 -8 -19 -5 -55
-14 -80 -19 -72 -14 -133 -31 -167 -46 -17 -8 -40 -14 -52 -14 -12 0 -21 -4
-21 -9 0 -5 -12 -12 -27 -15 -29 -7 -42 -12 -163 -71 -84 -40 -108 -54 -128
-72 -7 -7 -20 -13 -28 -13 -8 0 -14 -3 -14 -8 0 -4 -16 -16 -36 -27 -19 -10
-45 -27 -57 -37 -12 -10 -27 -21 -32 -26 -6 -5 -18 -13 -27 -18 -43 -24 -226
-196 -298 -280 -78 -89 -220 -292 -220 -312 0 -6 -3 -12 -7 -14 -5 -1 -32 -52
-61 -113 -29 -60 -58 -118 -63 -127 -5 -10 -9 -23 -9 -29 0 -6 -6 -25 -13 -42
-29 -68 -52 -156 -94 -352 -15 -73 -17 -206 -20 -1450 -3 -1022 -1 -1375 7
-1391 9 -16 9 -27 1 -43 -12 -22 -10 -24 26 -21 28 2 63 -33 63 -63 0 -34 -22
-58 -60 -66 l-35 -7 0 -57 c1 -31 2 -353 5 -714 2 -390 6 -615 10 -553 9 129
8 122 19 115 5 -3 16 2 24 10 9 8 24 15 35 15 11 0 25 6 31 14 7 8 20 12 31 9
11 -3 34 0 52 6 20 7 34 8 38 2 10 -17 53 -8 58 11 5 19 32 25 32 8 0 -16 25
-12 52 9 26 21 43 17 49 -12 4 -16 5 -16 17 4 8 11 9 18 3 14 -6 -3 -11 -1
-11 4 0 6 9 11 19 11 10 0 22 8 25 17 6 15 8 15 16 3 6 -10 3 -21 -8 -34 -16
-18 -16 -19 1 -13 10 4 33 7 50 7 30 1 31 2 12 13 -16 9 -20 19 -15 42 6 28 7
29 14 8 4 -13 4 -27 1 -33 -3 -5 -1 -10 5 -10 6 0 16 11 22 25 14 30 42 35 33
5 -5 -15 -2 -20 10 -20 9 0 19 9 22 20 5 20 33 27 47 13 13 -13 86 -31 86 -22
0 5 -4 9 -10 9 -5 0 -10 4 -10 10 0 5 3 9 8 8 4 0 14 2 24 6 9 4 29 6 45 4 15
-2 33 3 39 11 8 11 15 11 33 2 30 -16 20 -27 -23 -25 -21 1 -36 -3 -36 -10 0
-14 99 -15 101 -1 1 6 1 19 1 30 -1 17 0 17 4 3 6 -20 19 -23 29 -8 4 6 11 8
16 4 5 -3 7 -10 4 -15 -9 -14 5 -11 21 6 21 21 40 19 23 -2 -13 -15 -11 -16
19 -10 17 4 32 3 32 -2 0 -5 9 -7 20 -4 17 5 17 7 5 20 -8 8 -19 11 -25 8 -5
-3 -10 -1 -10 4 0 15 57 14 63 -1 3 -10 11 -10 33 -3 16 6 46 8 66 5 22 -4 36
-3 35 3 -1 5 4 12 12 15 10 3 12 0 7 -13 -5 -13 -2 -16 11 -10 32 12 38 10 38
-9 0 -16 7 -19 38 -19 21 0 43 6 50 14 6 8 21 21 32 29 20 15 20 14 1 -8 -11
-12 -16 -25 -13 -28 11 -11 39 5 44 26 6 24 11 25 34 4 16 -14 23 -15 48 -4
38 15 75 -1 66 -31 -6 -17 -4 -18 21 -9 15 6 33 18 40 28 10 14 11 13 7 -11
-3 -16 -1 -27 6 -27 6 0 11 9 11 20 0 11 5 20 10 20 6 0 10 -4 10 -10 0 -6 31
-10 73 -10 48 0 67 -3 57 -10 -13 -8 -13 -10 0 -14 8 -3 36 -6 61 -8 45 -3 52
3 36 29 -6 9 -3 11 9 6 12 -4 15 -3 10 5 -4 6 6 4 23 -5 16 -10 28 -21 25 -24
-2 -4 2 -10 8 -13 7 -2 2 -3 -11 -2 -14 2 -28 11 -31 21 -6 17 -7 17 -13 2 -4
-11 2 -25 16 -38 15 -15 18 -23 9 -26 -6 -3 -9 -9 -6 -15 3 -5 15 -2 27 9 11
10 17 12 12 4 -6 -10 -4 -12 4 -7 7 5 10 14 7 22 -3 7 0 16 6 20 7 4 8 3 4 -4
-4 -7 -2 -12 4 -12 7 0 9 -7 6 -16 -3 -8 -2 -13 3 -10 5 3 21 -6 35 -19 30
-27 36 -30 36 -15 0 6 -6 10 -14 10 -8 0 -18 9 -21 20 -4 11 -10 18 -15 15 -5
-3 -11 4 -15 15 -8 25 -103 122 -114 116 -4 -3 -8 4 -8 15 -2 22 -57 81 -67
71 -4 -3 -4 1 -1 10 5 11 -2 25 -17 40 -14 13 -27 31 -31 41 -3 9 -11 17 -16
17 -5 0 -13 10 -17 22 -3 12 -10 26 -15 32 -42 50 -49 61 -49 73 0 7 -4 13 -8
13 -4 0 -13 12 -19 28 -12 27 -33 63 -43 72 -6 5 -96 188 -124 252 -9 20 -16
43 -16 52 0 9 -4 16 -9 16 -5 0 -12 16 -15 35 -4 19 -13 47 -21 62 -8 15 -15
37 -15 48 0 12 -4 25 -9 30 -8 10 -15 34 -41 150 -6 28 -16 66 -21 85 -10 35
-23 123 -39 255 -12 95 -11 463 1 550 5 39 12 91 15 116 l6 45 -36 -4 c-32 -4
-36 -2 -36 18 0 16 5 21 22 18 11 -2 23 3 26 11 3 10 -3 11 -27 6 -24 -5 -37
-2 -52 11 -40 36 -11 90 44 82 29 -4 28 -32 0 -36 -13 -2 -23 -8 -23 -13 0 -7
12 -8 30 -4 19 4 37 2 46 -6 32 -26 25 4 -16 66 -34 52 -40 69 -31 78 13 13
23 4 63 -54 l17 -24 0 38 c1 25 6 40 17 44 10 4 14 15 12 33 -1 16 4 37 13 47
8 10 26 52 39 93 12 41 27 79 31 84 5 6 9 16 9 23 0 7 16 46 35 87 19 41 35
80 35 86 0 5 4 10 9 10 5 0 12 12 16 27 3 15 10 30 13 33 4 3 18 27 32 53 45
88 169 277 181 277 5 0 9 4 9 10 0 12 65 98 96 127 13 12 24 26 24 30 0 8 234
240 285 283 119 99 303 224 412 280 26 14 50 28 53 32 3 3 18 10 33 13 15 4
27 11 27 16 0 5 5 9 10 9 6 0 45 16 86 35 41 19 79 35 84 35 6 0 18 4 28 10
28 16 225 80 248 80 11 0 24 4 30 9 9 8 38 15 184 41 36 6 88 16 115 22 75 16
513 22 620 8 50 -6 120 -15 158 -20 37 -5 82 -13 100 -19 17 -5 55 -15 82 -21
112 -25 140 -33 149 -41 6 -5 19 -9 30 -9 12 0 34 -7 50 -15 15 -8 35 -15 43
-15 8 0 27 -6 41 -14 15 -8 67 -31 116 -51 88 -37 156 -71 226 -114 19 -12 47
-27 63 -33 15 -7 27 -16 27 -20 0 -4 5 -8 10 -8 12 0 73 -41 78 -52 2 -5 8 -8
14 -8 44 0 455 -377 538 -492 18 -27 37 -48 42 -48 4 0 8 -6 8 -14 0 -8 4 -16
9 -18 10 -4 159 -222 168 -246 4 -10 9 -19 13 -22 6 -5 123 -243 154 -312 9
-20 16 -42 16 -50 0 -8 4 -18 9 -24 4 -5 18 -43 31 -84 12 -41 26 -84 31 -95
9 -20 18 -56 39 -165 7 -30 16 -69 21 -86 30 -98 50 -573 30 -719 -26 -202
-51 -348 -61 -360 -4 -5 -11 -33 -15 -61 -5 -40 -3 -53 9 -64 13 -10 14 -16 5
-26 -8 -10 -15 -11 -24 -4 -10 8 -15 5 -20 -12 -5 -13 -3 -24 4 -26 6 -2 11
-19 11 -39 0 -31 4 -36 40 -51 65 -27 32 -49 -40 -26 l-25 8 18 -28 c10 -14
15 -31 12 -36 -12 -19 -31 -9 -50 26 -22 41 -33 28 -15 -17 14 -33 5 -51 -38
-72 -16 -7 -30 -25 -36 -44 -5 -18 -12 -33 -16 -33 -4 0 -11 -12 -15 -27 -3
-15 -10 -30 -13 -33 -4 -3 -18 -27 -31 -55 -14 -27 -27 -52 -30 -55 -10 -9
-31 -44 -44 -72 -6 -16 -15 -28 -19 -28 -4 0 -8 -5 -8 -10 0 -12 -34 -62 -67
-100 -13 -13 -23 -28 -23 -31 0 -3 -9 -17 -20 -30 -11 -13 -23 -29 -27 -34
-103 -135 -303 -335 -438 -438 -5 -4 -21 -16 -34 -27 -13 -11 -27 -20 -30 -20
-3 0 -17 -10 -31 -23 -14 -12 -43 -34 -65 -47 -22 -13 -42 -27 -45 -30 -3 -3
-16 -11 -30 -18 -30 -14 -63 -35 -70 -43 -3 -3 -27 -16 -55 -30 -27 -13 -52
-27 -55 -31 -3 -3 -18 -10 -33 -13 -15 -4 -27 -11 -27 -16 0 -5 -5 -9 -11 -9
-7 0 -30 -9 -53 -19 -83 -39 -114 -51 -130 -51 -9 0 -16 -4 -16 -9 0 -5 -16
-12 -35 -15 -19 -4 -47 -13 -62 -21 -15 -8 -40 -15 -55 -15 -16 0 -28 -4 -28
-9 0 -6 -21 -13 -47 -17 -27 -3 -52 -10 -58 -14 -5 -5 -37 -11 -70 -15 -33 -4
-65 -11 -70 -16 -6 -4 -51 -11 -100 -15 -50 -3 -94 -10 -100 -14 -5 -4 -91
-11 -190 -16 -175 -8 -186 -17 -30 -25 31 -1 40 -4 23 -6 -16 -2 -28 -8 -28
-13 0 -5 11 -7 25 -4 18 3 25 0 25 -12 0 -11 -6 -15 -20 -11 -11 3 -20 1 -20
-5 0 -6 11 -8 25 -6 14 3 25 1 25 -3 0 -5 16 -9 35 -9 24 0 35 -5 35 -15 0 -8
-8 -15 -17 -16 -14 0 -15 -2 -3 -6 20 -8 40 -29 40 -42 0 -14 6 -14 30 -1 20
11 39 -3 20 -15 -5 -3 -10 -11 -10 -16 0 -6 5 -7 10 -4 6 3 10 1 10 -4 0 -6 7
-11 14 -11 13 0 13 4 0 35 -12 30 -12 34 1 29 8 -4 15 -15 15 -25 0 -11 7 -22
15 -25 9 -4 14 -14 13 -23 -2 -9 3 -15 10 -13 6 1 11 -4 10 -10 -2 -7 7 -13
19 -13 12 0 34 -11 48 -23 14 -12 30 -22 36 -22 5 0 7 -5 4 -10 -9 -15 -46 -2
-68 22 -21 25 -33 18 -17 -11 6 -13 21 -21 35 -21 21 0 25 -5 25 -27 0 -21 3
-24 9 -13 6 8 7 19 4 25 -4 5 -2 6 3 2 5 -5 9 -12 9 -15 0 -4 4 -13 8 -20 12
-17 27 -5 20 16 -5 13 -3 14 7 5 7 -6 13 -25 13 -41 1 -23 5 -28 14 -20 9 7
10 16 2 29 -16 30 -2 22 27 -16 20 -27 24 -39 16 -47 -18 -18 -14 -28 8 -28
12 0 17 5 14 14 -3 8 -1 17 5 21 6 3 11 0 11 -7 0 -8 8 -21 18 -30 38 -37 52
-55 52 -66 0 -7 5 -11 11 -10 6 2 16 -6 22 -17 7 -11 17 -24 24 -30 7 -5 14
-23 17 -39 6 -35 21 -52 30 -37 11 17 30 13 44 -10 12 -18 11 -19 -7 -10 -25
14 -31 14 -31 1 0 -6 12 -15 26 -20 18 -7 24 -15 20 -26 -3 -8 -2 -13 3 -9 5
3 11 -1 14 -7 3 -10 7 -10 21 1 9 8 20 11 24 7 4 -4 -1 -13 -10 -20 -16 -12
-16 -14 3 -29 10 -9 19 -26 19 -37 0 -12 5 -17 14 -14 8 3 28 -8 45 -25 33
-32 39 -51 19 -51 -8 -1 -6 -6 5 -14 9 -7 17 -20 17 -28 0 -9 7 -21 15 -28 12
-10 15 -10 15 2 0 8 -5 19 -12 26 -9 9 -8 12 4 12 27 0 40 -24 23 -46 -19 -25
-19 -40 0 -20 13 13 18 13 45 0 37 -19 39 -28 5 -22 -14 3 -25 4 -25 3 0 -15
34 -64 41 -59 6 4 6 11 -2 20 -9 11 -7 14 10 14 24 0 26 -27 3 -45 -11 -9 -9
-14 7 -29 21 -19 21 -19 21 2 0 12 4 22 9 22 15 0 24 -41 12 -53 -22 -22 -13
-40 19 -33 23 4 30 2 30 -10 0 -8 7 -22 15 -30 9 -10 12 -26 9 -47 -4 -24 -3
-28 5 -17 20 29 51 15 51 -24 0 -11 7 -28 17 -38 9 -10 11 -18 6 -18 -6 0 -16
6 -23 14 -6 9 -19 12 -28 8 -14 -5 -12 -7 8 -12 14 -3 26 -12 26 -20 1 -8 2
-19 3 -24 0 -5 9 -2 18 5 15 12 16 12 10 -3 -7 -21 15 -40 37 -32 20 8 21 -10
0 -30 -20 -21 -27 -20 -49 4 -10 11 -27 20 -38 20 -18 0 -18 -2 4 -25 13 -13
31 -25 39 -25 13 0 13 -1 0 -10 -10 -7 110 -9 355 -7 351 3 586 17 630 37 11
5 45 13 75 19 74 13 139 30 177 47 17 8 38 14 47 14 9 0 24 4 34 10 9 5 40 19
67 30 79 33 179 84 193 97 7 7 18 13 24 13 5 0 30 14 55 30 24 17 46 30 49 30
3 0 10 5 17 10 7 6 46 35 87 66 41 30 77 59 78 64 2 6 7 10 12 10 12 0 230
219 230 231 0 5 4 9 9 9 4 0 28 27 52 60 24 33 47 60 50 60 4 0 10 11 13 25 4
14 11 25 16 25 6 0 10 7 10 15 0 7 6 18 13 22 7 4 18 19 24 33 7 14 26 48 42
75 17 28 35 60 41 73 5 13 21 46 34 75 14 29 28 64 31 80 4 15 11 27 16 27 5
0 9 7 9 15 0 9 -9 15 -24 15 -33 0 -70 32 -116 100 -29 42 -44 57 -57 54 -22
-6 -50 33 -35 48 7 7 5 22 -6 44 -13 29 -14 37 -2 60 16 29 12 31 61 -38 15
-21 17 -21 41 -6 24 16 27 16 42 -1 17 -18 21 -41 9 -41 -5 0 -16 -7 -26 -14
-17 -13 -16 -17 19 -70 21 -32 47 -59 60 -62 37 -10 62 4 69 39 4 18 10 37 14
42 8 13 26 101 48 235 17 98 18 254 18 2365 -1 2046 -3 2270 -17 2365 -22 140
-66 331 -79 340 -3 3 -10 21 -14 40 -4 19 -11 41 -16 50 -5 8 -18 38 -29 65
-26 61 -51 113 -68 142 -13 21 -16 21 -37 7 -12 -8 -37 -19 -54 -24 -29 -8
-33 -6 -41 16 -6 14 -10 27 -10 29 0 2 20 13 44 23 54 24 59 32 37 60 -16 22
-18 22 -55 7 -42 -18 -70 -13 -103 17 -34 31 -38 72 -13 113 12 19 26 35 31
35 21 0 10 23 -33 71 -10 10 -18 21 -18 23 0 8 -221 226 -228 226 -4 0 -15 8
-23 18 -9 9 -26 24 -38 32 -13 8 -33 23 -44 33 -37 32 -154 107 -166 107 -6 0
-11 5 -11 10 0 6 -5 10 -11 10 -7 0 -34 13 -60 30 -27 16 -60 32 -74 36 -14 3
-25 10 -25 15 0 5 -6 9 -12 9 -7 0 -25 6 -39 14 -15 7 -55 23 -90 35 -35 12
-73 26 -84 30 -47 21 -218 59 -350 78 -97 14 -360 17 -2194 20 l-2083 3 16
-25z m-256 -64 c9 -5 26 -12 36 -16 15 -4 17 -8 8 -17 -17 -17 32 -68 59 -61
26 7 25 -23 -1 -37 -16 -9 -26 -5 -57 23 -21 19 -46 37 -56 40 -10 4 -15 12
-12 17 4 6 1 17 -5 25 -6 8 -9 19 -5 25 8 12 11 12 33 1z m-57 -41 c23 0 6
-29 -18 -32 -17 -2 -29 -10 -31 -21 -3 -16 2 -18 40 -17 70 3 77 1 93 -24 30
-45 -16 -104 -70 -90 -36 9 -31 32 8 36 24 2 32 8 32 23 0 18 -7 20 -58 20
-60 0 -87 17 -87 54 0 31 43 65 68 56 8 -3 18 -5 23 -5z m5147 -706 c77 -21
116 -39 187 -87 71 -47 165 -144 165 -170 0 -5 18 7 40 27 33 30 48 36 84 36
40 0 48 -4 80 -42 20 -23 36 -46 36 -52 -1 -6 -28 -31 -61 -56 -60 -45 -65
-56 -37 -73 23 -15 46 -2 69 38 26 44 69 50 69 10 0 -80 -101 -142 -171 -105
-16 9 -19 7 -19 -14 0 -14 5 -28 10 -31 22 -14 6 -163 -31 -275 -18 -58 -32
-86 -64 -135 -32 -47 -100 -125 -110 -125 -3 0 -16 -10 -28 -23 -12 -12 -33
-28 -47 -35 -14 -7 -38 -20 -55 -30 -65 -40 -163 -62 -275 -62 -85 0 -110 -3
-121 -16 -18 -22 -64 -44 -92 -44 -18 0 -26 6 -29 25 -4 21 0 26 28 35 36 12
46 30 17 30 -27 0 -135 57 -171 90 -18 16 -35 30 -38 30 -5 0 -32 28 -69 71
-89 105 -137 239 -138 384 -1 69 16 181 32 213 4 9 16 35 27 57 10 22 25 50
34 61 8 12 22 32 30 44 62 92 215 198 319 221 25 6 64 14 86 19 53 12 173 4
243 -16z m657 -64 c17 -19 17 -21 -8 -44 -15 -14 -27 -29 -27 -34 0 -5 27 -47
60 -93 33 -46 60 -88 60 -94 0 -6 -9 -16 -21 -23 -24 -15 -14 -24 -104 99 -65
90 -71 128 -29 178 30 36 44 38 69 11z m-6665 -85 c0 -19 -7 -26 -32 -33 -28
-7 -34 -14 -38 -43 -4 -26 -10 -35 -27 -37 -21 -3 -23 1 -23 40 1 50 17 76 57
88 50 15 63 12 63 -15z m3340 -9 c0 -21 -6 -25 -32 -28 -29 -3 -34 -7 -38 -38
-5 -32 -10 -36 -40 -31 -5 0 -10 19 -10 41 0 53 27 80 80 80 36 0 40 -3 40
-24z m-3270 -132 c-9 -57 -26 -74 -80 -81 -39 -6 -42 -5 -38 17 2 17 12 26 36
32 28 8 32 13 32 43 0 32 3 35 28 35 28 0 29 -1 22 -46z m3342 -9 c-4 -52 -41
-87 -86 -83 -26 2 -31 7 -31 28 0 21 5 26 33 28 28 3 32 7 32 31 0 34 8 43 35
39 17 -3 20 -9 17 -43z m-2853 -2418 c59 -91 63 -100 40 -105 -22 -4 -135 168
-117 179 7 5 15 9 18 9 3 0 29 -37 59 -83z m-40 -54 c23 -32 41 -62 41 -68 -1
-18 -72 -57 -94 -51 -21 6 -86 92 -86 114 0 26 31 10 61 -30 51 -72 82 -43 34
31 -25 37 -27 61 -5 61 5 0 27 -26 49 -57z m-159 -58 c0 -32 4 -37 45 -57 25
-12 45 -26 45 -30 0 -16 -31 -21 -57 -9 -30 14 -41 8 -23 -14 13 -15 7 -45 -9
-45 -11 0 -121 144 -121 159 0 26 25 21 51 -10 l27 -34 8 30 c13 58 34 64 34
10z m-130 -24 c0 -5 6 -16 13 -23 7 -7 32 -38 55 -70 33 -46 39 -58 28 -67
-11 -9 -22 -1 -52 36 -63 77 -85 113 -79 123 8 13 35 13 35 1z m-1 -108 c47
-62 57 -80 48 -92 -9 -11 -18 -6 -49 30 -43 50 -47 46 -17 -12 36 -72 10 -89
-59 -38 -52 38 -53 32 -5 -22 29 -32 34 -42 23 -49 -20 -12 -30 -4 -95 73 -48
56 -55 70 -45 82 19 23 38 18 93 -22 55 -41 55 -40 21 49 -15 39 -16 49 -5 62
8 9 17 16 21 16 5 0 36 -35 69 -77z m6419 -122 c17 -10 11 -47 -7 -43 -32 7
-51 -9 -51 -44 0 -31 -3 -35 -22 -32 -19 2 -24 10 -26 40 -5 61 59 109 106 79z
m-6600 -61 c17 -33 32 -66 32 -74 0 -21 -26 -27 -47 -11 -28 22 -35 18 -19
-14 14 -25 14 -31 1 -41 -12 -10 -26 -5 -77 27 -34 22 -64 45 -66 51 -7 23 27
24 58 2 32 -23 38 -17 15 14 -35 46 -8 72 40 40 29 -19 31 -14 10 25 -8 16
-11 31 -8 35 15 15 30 2 61 -54z m6695 -92 c3 -18 0 -44 -7 -58 -10 -21 -18
-25 -56 -25 -39 0 -45 3 -48 22 -3 18 2 22 30 25 31 3 33 5 30 36 -3 28 0 32
21 32 20 0 26 -6 30 -32z m-6822 -54 l43 -44 -34 -30 c-52 -44 -100 -36 -100
16 0 13 -8 24 -20 27 -28 7 -25 41 5 65 33 26 53 20 106 -34z m-129 -68 c59
-65 66 -76 52 -87 -14 -11 -25 -3 -85 61 -37 41 -68 81 -69 88 -1 31 41 6 102
-62z m-59 -22 c11 -11 -5 -34 -24 -34 -10 0 -19 -4 -19 -9 0 -6 12 -6 30 1 37
12 80 -10 80 -42 0 -28 -37 -62 -63 -58 -29 4 -36 38 -8 38 11 0 23 5 27 11 5
8 -5 9 -33 4 -31 -5 -44 -2 -57 10 -19 19 -21 56 -4 73 12 12 60 17 71 6z
m-81 -86 c68 -74 78 -91 56 -104 -11 -7 -25 7 -114 113 -31 37 -38 63 -16 63
4 0 37 -33 74 -72z m-60 -30 c8 -7 32 -32 53 -56 29 -33 35 -46 27 -54 -9 -9
-22 -2 -55 30 -70 69 -96 44 -32 -30 34 -40 37 -58 10 -58 -22 0 -108 107
-101 126 4 9 9 14 13 11 3 -4 14 5 25 18 22 28 37 31 60 13z m-69 -140 l50
-51 -34 -28 c-43 -36 -73 -37 -95 -3 -16 24 -16 26 5 55 13 17 20 33 18 36 -9
8 -27 -7 -27 -23 0 -8 -9 -14 -20 -14 -25 0 -27 36 -3 62 27 30 54 21 106 -34z
m-185 -17 c9 -5 25 -12 36 -15 12 -4 16 -12 12 -22 -10 -25 20 -64 49 -64 30
0 33 -25 5 -40 -24 -13 -54 0 -70 30 -6 10 -22 25 -37 32 -18 9 -27 22 -29 42
-5 44 3 53 34 37z m6461 -382 c39 -57 44 -79 18 -79 -16 0 -90 117 -82 130 12
19 22 10 64 -51z m-5099 -899 c0 -5 -6 -10 -14 -10 -8 0 -18 5 -21 10 -3 6 3
10 14 10 12 0 21 -4 21 -10z m553 -37 c-7 -2 -19 -2 -25 0 -7 3 -2 5 12 5 14
0 19 -2 13 -5z m-1609 -24 c-6 -11 -24 -2 -24 11 0 5 7 7 15 4 8 -4 12 -10 9
-15z m7464 -660 c12 -19 10 -24 -18 -48 l-32 -26 21 -36 c22 -37 20 -42 -16
-63 -17 -9 -63 62 -63 98 0 20 11 39 36 62 41 40 54 42 72 13z m-305 -211 c7
-27 1 -38 -21 -38 -42 0 -81 -57 -52 -75 5 -3 34 2 65 11 65 21 94 12 125 -38
28 -44 19 -84 -24 -125 -45 -42 -84 -52 -103 -28 -20 29 -16 38 30 60 29 14
43 27 45 44 6 38 -11 46 -58 27 -59 -23 -92 -21 -122 12 -46 48 -39 107 19
147 48 32 89 33 96 3z m-3418 2 c3 -5 1 -10 -4 -10 -6 0 -11 5 -11 10 0 6 2
10 4 10 3 0 8 -4 11 -10z m89 -49 c7 -11 -14 -20 -31 -13 -7 2 -10 8 -7 13 7
12 31 12 38 0z m3156 -61 c8 -15 6 -24 -10 -40 -11 -11 -20 -26 -20 -34 0 -8
34 -54 75 -103 l75 -88 -22 -18 c-11 -10 -24 -14 -28 -10 -4 4 -41 47 -83 95
-68 77 -77 92 -77 126 0 70 64 121 90 72z m-82 -175 l47 -45 -56 -55 c-52 -50
-55 -55 -39 -70 9 -8 23 -15 30 -15 20 0 50 30 50 50 0 18 19 30 46 30 17 0
19 -61 4 -91 -15 -26 -62 -49 -105 -49 -31 0 -46 9 -106 68 -64 63 -69 71 -69
111 0 36 6 49 34 77 28 28 42 34 76 34 35 0 48 -6 88 -45z m-341 -107 l33 -32
25 24 25 24 22 -22 22 -22 -23 -24 -24 -25 54 -51 c53 -49 67 -54 109 -37 9 4
22 -3 32 -18 18 -23 17 -24 -16 -44 -55 -35 -80 -28 -150 39 -35 33 -67 60
-72 60 -5 0 -22 -16 -38 -36 l-28 -36 38 -40 c53 -54 65 -59 103 -45 26 10 34
9 48 -5 14 -14 14 -19 3 -33 -23 -27 -70 -47 -97 -40 -14 3 -51 31 -83 61 -39
37 -62 52 -74 48 -24 -9 -48 15 -41 43 3 13 1 23 -5 23 -5 0 -17 11 -25 24
-12 18 -13 30 -5 50 l10 27 40 -32 40 -33 30 29 c35 34 38 50 10 67 -20 13
-26 42 -14 72 8 22 13 21 51 -16z m-2207 -198 c0 -5 -2 -10 -4 -10 -3 0 -8 5
-11 10 -3 6 -1 10 4 10 6 0 11 -4 11 -10z m2133 -138 c48 -48 87 -94 87 -101
0 -50 -100 -141 -155 -141 -39 0 -47 7 -125 98 -62 73 -69 95 -34 109 13 5 37
-14 89 -70 40 -42 75 -77 79 -77 15 0 66 34 71 48 3 9 -25 48 -71 99 -74 81
-76 84 -59 103 10 11 21 20 24 20 4 0 46 -39 94 -88z m-429 -163 l16 -23 22
21 c48 43 93 54 135 30 24 -13 142 -156 142 -172 0 -5 -10 -18 -24 -27 l-24
-18 -58 78 c-49 64 -63 78 -90 80 -25 2 -35 -2 -48 -21 -16 -24 -15 -27 44
-110 34 -46 61 -89 61 -94 0 -15 -49 -38 -59 -27 -17 19 -211 312 -211 319 0
4 8 14 18 21 15 12 20 10 39 -11 11 -13 28 -34 37 -46z m-48 -113 c7 -30 -1
-46 -24 -46 -27 0 -62 -29 -62 -52 0 -18 4 -19 33 -14 105 20 114 20 141 -7
56 -56 22 -135 -76 -177 -50 -21 -52 -22 -65 -4 -21 28 -12 45 31 59 22 8 48
23 60 34 18 19 19 22 5 36 -14 14 -20 14 -58 0 -24 -8 -53 -15 -65 -15 -33 0
-76 50 -76 88 0 54 70 115 137 121 7 1 15 -10 19 -23z m-1009 -442 c-3 -3 -12
-4 -19 -1 -8 3 -5 6 6 6 11 1 17 -2 13 -5z"/>
<path d="M10700 11440 c-21 -21 -23 -29 -14 -54 9 -23 24 -20 64 13 29 25 32
31 21 45 -18 22 -47 20 -71 -4z"/>
<path d="M4097 8433 c-4 -3 -7 -13 -7 -21 0 -12 3 -12 15 -2 8 7 15 16 15 21
0 11 -14 12 -23 2z"/>
<path d="M4133 8385 c-3 -9 -3 -18 0 -21 9 -9 27 6 27 22 0 19 -19 18 -27 -1z"/>
<path d="M3741 8036 c-10 -12 -6 -26 10 -26 11 0 19 29 10 35 -5 2 -14 -1 -20
-9z"/>
<path d="M10687 5532 c-22 -24 -21 -45 1 -65 17 -16 20 -15 50 16 31 32 32 34
14 50 -24 22 -45 21 -65 -1z"/>
<path d="M5320 12451 c-7 -13 -7 -22 0 -26 15 -9 30 4 30 26 0 25 -16 25 -30
0z"/>
<path d="M11033 11693 c-16 -6 -17 -39 -2 -48 5 -4 21 -4 34 -1 22 6 23 9 13
31 -11 25 -21 28 -45 18z"/>
<path d="M7269 10176 c-3 -3 -43 -12 -90 -20 -96 -17 -167 -34 -189 -45 -9 -5
-30 -12 -49 -16 -18 -4 -44 -13 -59 -21 -15 -8 -31 -14 -36 -14 -35 0 -354
-186 -387 -226 -6 -8 -16 -14 -22 -14 -12 0 -287 -276 -287 -289 0 -7 -11 -22
-50 -68 -5 -7 -10 -15 -10 -18 0 -6 -41 -67 -51 -75 -4 -3 -10 -16 -14 -30 -4
-14 -10 -27 -14 -30 -3 -3 -23 -41 -44 -85 -21 -44 -42 -87 -47 -96 -5 -9 -12
-33 -15 -53 -4 -20 -11 -36 -16 -36 -5 0 -9 -11 -9 -25 0 -14 -6 -41 -14 -59
-7 -18 -17 -57 -21 -87 -4 -30 -12 -59 -17 -66 -14 -18 -22 -424 -9 -513 15
-113 31 -193 41 -212 6 -10 10 -25 10 -33 0 -19 37 -128 56 -164 8 -14 14 -31
14 -36 0 -6 18 -44 40 -85 22 -41 43 -83 46 -92 4 -10 10 -18 14 -18 4 0 11
-11 14 -25 4 -14 11 -25 16 -25 6 0 10 -6 10 -13 0 -8 9 -22 20 -32 11 -10 20
-22 20 -27 0 -5 6 -16 13 -23 6 -8 26 -31 42 -51 17 -20 38 -45 48 -55 9 -10
17 -21 17 -24 0 -8 133 -135 141 -135 3 0 22 -15 42 -32 53 -49 93 -79 166
-122 36 -22 68 -43 71 -47 3 -4 18 -11 33 -14 15 -4 27 -11 27 -15 0 -5 14
-11 30 -15 17 -4 30 -11 30 -16 0 -5 8 -9 18 -9 9 -1 35 -9 57 -20 22 -11 48
-19 58 -20 9 0 17 -4 17 -9 0 -5 20 -12 45 -15 24 -4 47 -11 50 -15 2 -5 27
-11 55 -15 28 -4 61 -11 73 -16 12 -5 74 -14 137 -20 63 -6 135 -14 160 -17
24 -3 81 0 125 6 44 6 116 15 160 20 84 10 181 31 228 50 16 6 39 11 53 11 13
0 24 4 24 9 0 5 17 13 38 19 48 13 106 35 112 43 3 4 16 10 30 14 14 4 27 10
30 14 3 3 25 17 50 30 50 26 182 111 190 122 3 4 28 23 55 44 60 44 227 215
262 268 14 20 30 37 34 37 5 0 9 5 9 10 0 9 35 65 50 80 17 17 129 241 135
271 4 16 10 29 15 29 4 0 10 12 13 28 2 15 10 41 16 57 13 36 34 115 56 210 9
41 18 139 21 235 10 294 -30 515 -137 757 -11 23 -19 47 -19 52 0 6 -4 11 -9
11 -5 0 -12 14 -16 30 -4 17 -10 30 -15 30 -5 0 -12 9 -15 21 -8 23 -101 162
-154 229 -101 126 -299 302 -426 376 -27 16 -59 34 -70 41 -11 7 -30 17 -43
23 -82 36 -141 64 -165 76 -16 8 -35 14 -44 14 -8 0 -29 6 -46 14 -35 14 -96
31 -202 53 -69 15 -514 31 -526 19z m311 -1580 c0 -21 -6 -25 -32 -28 -30 -3
-33 -6 -34 -35 0 -18 -3 -33 -7 -33 -47 0 -47 0 -47 38 0 58 22 82 76 82 40 0
44 -2 44 -24z m85 -133 c10 -53 -19 -88 -71 -88 -35 0 -39 3 -42 28 -3 24 0
27 27 27 29 0 31 3 31 35 0 30 3 35 24 35 19 0 25 -7 31 -37z"/>
<path d="M1080 8655 c0 -15 4 -24 10 -20 6 3 10 12 10 20 0 8 -4 17 -10 20 -6
4 -10 -5 -10 -20z"/>
<path d="M13900 8344 c-11 -12 -10 -18 3 -32 16 -15 17 -14 17 16 0 36 -2 38
-20 16z"/>
<path d="M13802 8247 l-32 -33 49 -53 c37 -39 55 -52 73 -49 19 3 23 10 26 47
3 39 -1 48 -34 82 -21 22 -41 39 -44 39 -3 0 -21 -15 -38 -33z"/>
<path d="M3537 7895 c-4 -8 -2 -17 4 -20 15 -10 49 5 49 21 0 19 -46 18 -53
-1z"/>
<path d="M5137 6770 c-3 -12 0 -20 7 -20 18 0 25 10 19 26 -7 20 -20 17 -26
-6z"/>
<path d="M4708 6763 c12 -2 32 -2 45 0 12 2 2 4 -23 4 -25 0 -35 -2 -22 -4z"/>
<path d="M4810 6755 c7 -8 19 -15 27 -15 12 0 12 2 -1 15 -8 8 -20 15 -27 15
-9 0 -8 -4 1 -15z"/>
<path d="M5040 6760 c0 -13 20 -13 40 0 12 8 9 10 -12 10 -16 0 -28 -4 -28
-10z"/>
<path d="M4340 6750 c0 -5 5 -10 11 -10 5 0 7 5 4 10 -3 6 -8 10 -11 10 -2 0
-4 -4 -4 -10z"/>
<path d="M5300 6740 c0 -5 12 -10 28 -10 21 0 24 2 12 10 -20 13 -40 13 -40 0z"/>
<path d="M5376 6733 c-11 -11 -6 -23 9 -23 8 0 15 4 15 9 0 13 -16 22 -24 14z"/>
<path d="M5490 6710 c0 -5 5 -10 10 -10 6 0 10 5 10 10 0 6 -4 10 -10 10 -5 0
-10 -4 -10 -10z"/>
<path d="M3680 6641 c0 -16 22 -24 29 -12 4 6 15 9 23 6 9 -4 19 -2 23 4 4 7
-8 11 -34 11 -23 0 -41 -4 -41 -9z"/>
<path d="M5520 6630 c0 -5 4 -10 9 -10 6 0 13 5 16 10 3 6 -1 10 -9 10 -9 0
-16 -4 -16 -10z"/>
<path d="M3628 6613 c6 -2 18 -2 25 0 6 3 1 5 -13 5 -14 0 -19 -2 -12 -5z"/>
<path d="M5725 6610 c3 -5 14 -10 23 -10 15 0 15 2 2 10 -20 13 -33 13 -25 0z"/>
<path d="M5775 6570 c21 -24 26 -25 19 -6 -3 8 -13 17 -22 21 -13 5 -13 2 3
-15z"/>
<path d="M5850 6496 c0 -2 9 -6 20 -9 11 -3 18 -1 14 4 -5 9 -34 13 -34 5z"/>
<path d="M3541 6284 c0 -11 3 -14 6 -6 3 7 2 16 -1 19 -3 4 -6 -2 -5 -13z"/>
<path d="M2813 6075 c0 -22 2 -30 4 -17 2 12 2 30 0 40 -3 9 -5 -1 -4 -23z"/>
<path d="M2352 6081 c2 -7 7 -12 11 -12 12 1 9 15 -3 20 -7 2 -11 -2 -8 -8z"/>
<path d="M6778 6013 c7 -3 16 -2 19 1 4 3 -2 6 -13 5 -11 0 -14 -3 -6 -6z"/>
<path d="M6898 5983 c7 -3 16 -2 19 1 4 3 -2 6 -13 5 -11 0 -14 -3 -6 -6z"/>
<path d="M6958 5973 c6 -2 18 -2 25 0 6 3 1 5 -13 5 -14 0 -19 -2 -12 -5z"/>
<path d="M7028 5953 c12 -2 30 -2 40 0 9 3 -1 5 -23 4 -22 0 -30 -2 -17 -4z"/>
<path d="M7114 5941 c18 -7 66 -3 66 5 0 2 -19 4 -42 3 -31 0 -37 -3 -24 -8z"/>
<path d="M7243 5923 c26 -2 68 -2 95 0 26 2 4 3 -48 3 -52 0 -74 -1 -47 -3z"/>
<path d="M2058 5889 c-22 -13 -43 -49 -28 -49 5 0 10 7 10 15 0 8 9 15 20 15
11 0 20 7 20 15 0 17 0 17 -22 4z"/>
<path d="M1930 5790 c-8 -5 -11 -12 -8 -16 10 -9 38 3 38 16 0 12 -10 13 -30
0z"/>
<path d="M1767 5661 c-2 -10 -1 -25 4 -32 6 -10 9 -4 9 19 0 36 -5 42 -13 13z"/>
<path d="M8060 5423 c0 -10 61 -45 68 -39 2 3 -7 11 -22 17 -14 7 -26 16 -26
21 0 4 -4 8 -10 8 -5 0 -10 -3 -10 -7z"/>
<path d="M7568 5393 c7 -3 16 -2 19 1 4 3 -2 6 -13 5 -11 0 -14 -3 -6 -6z"/>
<path d="M1468 5343 c7 -3 16 -2 19 1 4 3 -2 6 -13 5 -11 0 -14 -3 -6 -6z"/>
<path d="M8155 5320 c3 -5 10 -10 16 -10 5 0 9 5 9 10 0 6 -7 10 -16 10 -8 0
-12 -4 -9 -10z"/>
<path d="M1246 5124 c-4 -9 -4 -19 -2 -21 8 -8 26 8 26 23 0 19 -16 18 -24 -2z"/>
<path d="M8357 5103 c-4 -3 -7 -11 -7 -17 0 -6 5 -5 12 2 6 6 9 14 7 17 -3 3
-9 2 -12 -2z"/>
<path d="M8440 5010 c-13 -8 -12 -10 3 -10 9 0 17 5 17 10 0 12 -1 12 -20 0z"/>
<path d="M8686 4674 c-8 -20 -3 -27 18 -22 12 2 13 6 2 21 -13 16 -14 16 -20
1z"/>
<path d="M1103 4620 c0 -30 2 -43 4 -27 2 15 2 39 0 55 -2 15 -4 2 -4 -28z"/>
<path d="M8641 4589 c-1 -19 87 -104 97 -94 7 7 -55 65 -70 65 -5 0 -13 10
-18 23 -6 14 -9 16 -9 6z"/>
<path d="M1112 4480 c0 -14 2 -19 5 -12 2 6 2 18 0 25 -3 6 -5 1 -5 -13z"/>
<path d="M8748 4473 c7 -3 16 -2 19 1 4 3 -2 6 -13 5 -11 0 -14 -3 -6 -6z"/>
<path d="M8815 4460 c-3 -5 -1 -10 4 -10 6 0 11 5 11 10 0 6 -2 10 -4 10 -3 0
-8 -4 -11 -10z"/>
<path d="M9330 3080 c0 -5 7 -10 16 -10 8 0 12 5 9 10 -3 6 -10 10 -16 10 -5
0 -9 -4 -9 -10z"/>
<path d="M9375 2860 c-3 -5 -1 -10 4 -10 6 0 11 5 11 10 0 6 -2 10 -4 10 -3 0
-8 -4 -11 -10z"/>
<path d="M9417 2684 c-8 -8 1 -24 14 -24 5 0 9 7 9 15 0 15 -12 20 -23 9z"/>
<path d="M9440 2386 c0 -8 5 -18 10 -21 6 -3 10 1 10 9 0 8 -4 18 -10 21 -5 3
-10 -1 -10 -9z"/>
<path d="M9450 2285 c0 -19 4 -35 10 -35 5 0 9 16 7 35 -3 45 -17 45 -17 0z"/>
<path d="M9450 2236 c0 -2 7 -6 15 -10 8 -3 15 -1 15 4 0 6 -7 10 -15 10 -8 0
-15 -2 -15 -4z"/>
<path d="M0 500 l0 -500 7500 0 7500 0 0 500 0 500 -7500 0 -7500 0 0 -500z
m860 144 l0 -56 34 6 c41 8 92 -11 121 -44 17 -19 21 -39 24 -141 l3 -119 -36
0 -36 0 0 104 c0 121 -9 139 -69 134 l-36 -3 -3 -117 -3 -118 -34 0 -35 0 0
205 0 205 35 0 35 0 0 -56z m630 -54 l49 0 3 37 c2 30 9 41 36 56 l32 19 0
-56 0 -56 41 0 c39 0 40 -1 37 -32 -3 -30 -6 -33 -40 -36 l-38 -3 0 -66 c0
-71 16 -103 52 -103 13 0 18 -8 18 -30 0 -28 -3 -30 -36 -30 -75 0 -104 44
-104 160 l0 70 -50 0 -50 0 0 -69 c0 -74 14 -101 51 -101 14 0 19 -7 19 -30 0
-28 -2 -30 -39 -30 -28 0 -49 7 -68 24 -26 23 -28 30 -31 115 -3 70 -7 91 -18
91 -9 0 -14 12 -14 35 0 24 5 35 15 35 11 0 15 11 15 38 0 33 4 40 33 54 l32
15 3 -53 3 -54 49 0z m1010 55 l0 -55 35 0 c33 0 35 -2 35 -35 0 -33 -2 -35
-35 -35 l-35 0 0 -76 c0 -75 0 -76 30 -87 23 -9 30 -17 30 -39 0 -26 -3 -28
-37 -28 -71 1 -93 37 -93 148 0 71 -2 80 -20 85 -15 4 -20 14 -20 36 0 24 4
31 20 31 16 0 20 7 20 38 0 30 5 40 28 54 15 9 30 17 35 17 4 1 7 -24 7 -54z
m710 -56 l0 -111 47 56 c44 53 50 56 92 56 l45 0 -30 -32 c-16 -18 -31 -35
-34 -38 -3 -3 -17 -19 -33 -36 l-28 -31 61 -78 c33 -43 60 -79 60 -81 0 -2
-17 -4 -39 -4 -35 0 -42 5 -80 55 -23 31 -46 53 -52 50 -5 -4 -9 -28 -9 -56
l0 -49 -35 0 -35 0 0 205 0 205 35 0 35 0 0 -111z m9800 31 c0 -33 -4 -60 -10
-60 -6 0 -10 27 -10 60 0 33 4 60 10 60 6 0 10 -27 10 -60z m61 13 l15 -48 15
44 c22 68 39 65 39 -8 0 -65 -19 -87 -21 -23 l-1 37 -12 -34 c-17 -47 -30 -48
-43 -4 l-10 38 -2 -37 c-2 -59 -21 -45 -21 15 0 83 19 91 41 20z m153 -17 c19
-58 19 -56 6 -56 -5 0 -10 7 -10 15 0 9 -9 15 -25 15 -16 0 -25 -6 -25 -15 0
-8 -4 -15 -10 -15 -5 0 -10 2 -10 4 0 3 21 65 35 105 8 20 20 4 39 -53z m90
58 c28 -11 17 -24 -15 -17 l-30 6 3 -44 c2 -36 7 -44 23 -44 25 0 32 32 8 38
-12 3 -9 5 9 6 22 1 26 -3 23 -19 -6 -31 -14 -40 -39 -40 -32 0 -46 19 -46 60
0 51 23 70 64 54z m106 -4 c0 -5 -11 -10 -25 -10 -16 0 -25 -6 -25 -15 0 -8 9
-15 20 -15 11 0 20 -4 20 -10 0 -5 -9 -10 -20 -10 -33 0 -26 -38 8 -43 22 -3
20 -4 -10 -6 l-38 -1 0 53 c0 30 3 57 7 60 10 11 63 8 63 -3z m57 -82 c-2 -18
-4 -4 -4 32 0 36 2 50 4 33 2 -18 2 -48 0 -65z m94 82 c14 -8 19 -21 19 -48 0
-45 -14 -62 -52 -62 -28 0 -28 1 -28 60 0 54 2 60 21 60 11 0 29 -5 40 -10z
m143 3 c-12 -2 -24 -12 -27 -23 -3 -14 2 -19 25 -24 25 -5 29 -10 26 -33 -3
-24 -8 -28 -38 -30 -34 -1 -34 -1 -5 5 41 10 42 46 2 50 -21 3 -27 8 -23 19 3
8 6 21 6 29 0 9 10 14 28 13 21 -1 23 -3 6 -6z m104 -5 c7 -7 12 -31 12 -55 0
-47 -19 -65 -49 -46 -22 14 -26 76 -6 97 20 19 27 20 43 4z m77 0 c-20 -11
-35 -28 -35 -38 0 -3 12 -6 26 -5 34 0 53 -27 35 -49 -29 -34 -71 -8 -71 43 0
23 33 61 53 61 6 0 3 -6 -8 -12z m115 -21 c29 -51 -23 -117 -57 -71 -18 24
-16 69 3 89 21 20 35 15 54 -18z m84 17 c20 -19 21 -78 1 -94 -41 -34 -83 36
-51 85 19 29 29 31 50 9z m96 1 c10 -12 10 -18 0 -30 -10 -12 -10 -18 0 -30
19 -23 4 -47 -27 -43 -26 3 -28 6 -29 53 -2 48 7 64 32 65 6 0 17 -7 24 -15z
m81 5 c12 -7 19 -21 19 -41 0 -46 -16 -69 -48 -68 -21 1 -22 2 -7 6 31 8 42
21 43 52 1 31 -20 57 -38 46 -16 -10 -12 -43 8 -55 16 -11 16 -11 -1 -6 -10 3
-21 6 -23 6 -9 0 -3 47 8 58 15 15 15 15 39 2z m98 -9 c8 -15 5 -27 -14 -54
l-24 -36 27 -4 c21 -3 18 -4 -10 -6 -21 0 -38 1 -38 3 0 2 14 20 30 41 24 30
28 41 19 52 -7 8 -21 11 -33 8 -17 -5 -18 -4 -6 4 22 16 38 13 49 -8z m101 8
c0 -15 -42 -110 -47 -106 -2 2 6 25 17 51 11 26 20 49 20 51 0 2 -15 6 -32 8
-32 4 -32 4 5 5 20 1 37 -3 37 -9z m-853 -41 c-3 -8 -6 -5 -6 6 -1 11 2 17 5
13 3 -3 4 -12 1 -19z m-12875 -49 c14 -8 15 -14 7 -39 -9 -26 -13 -28 -35 -19
-38 14 -80 11 -95 -7 -11 -14 -11 -18 4 -29 10 -7 35 -15 57 -19 96 -15 119
-117 38 -166 -37 -22 -107 -26 -157 -9 -33 12 -34 13 -22 44 7 17 17 20 82 20
67 0 74 2 74 20 0 19 -16 27 -76 40 -48 9 -74 39 -74 83 0 47 24 78 69 91 33
10 100 5 128 -10z m1131 10 c51 -14 77 -57 77 -126 l0 -53 -85 0 c-76 0 -85
-2 -85 -19 0 -39 34 -48 105 -27 11 3 29 -1 40 -9 19 -15 19 -16 -8 -43 -24
-23 -35 -27 -88 -27 -56 0 -63 3 -90 33 -27 31 -29 37 -29 121 0 100 16 133
73 150 43 12 46 12 90 0z m265 -26 c3 -31 1 -33 -27 -33 -49 0 -61 -29 -61
-142 l0 -98 -30 0 -30 0 0 123 c0 115 2 125 23 145 28 27 65 42 97 39 20 -2
26 -8 28 -34z m182 26 c54 -11 56 -15 39 -53 -10 -21 -15 -23 -36 -15 -37 14
-79 11 -94 -7 -11 -14 -11 -18 4 -29 10 -7 35 -15 56 -19 52 -8 80 -33 87 -77
12 -74 -74 -125 -178 -105 -52 10 -61 19 -48 48 11 23 16 24 83 24 60 -1 72 2
75 16 4 19 -12 28 -86 48 -34 9 -46 18 -60 46 -16 34 -15 37 3 72 14 25 31 41
55 49 44 15 40 15 100 2z m712 1 c33 -10 78 -50 78 -70 0 -5 -13 -13 -29 -18
-23 -8 -31 -7 -45 9 -19 23 -59 25 -80 3 -19 -19 -22 -134 -4 -152 19 -19 76
-15 89 7 10 15 16 16 41 7 34 -13 36 -29 4 -61 -46 -45 -144 -45 -187 1 -20
21 -24 38 -27 99 -6 111 18 161 83 178 32 8 38 7 77 -3z m446 -22 c2 -19 -2
-28 -18 -33 -37 -12 -64 27 -38 53 21 21 53 10 56 -20z m-2338 -93 c0 -105 2
-115 20 -125 12 -6 33 -10 48 -8 l27 3 3 123 3 122 34 0 35 0 0 -143 0 -144
-39 -11 c-82 -25 -162 -8 -186 39 -11 20 -15 61 -15 144 l0 115 35 0 35 0 0
-115z m1610 81 c0 -34 -1 -35 -42 -38 -43 -3 -43 -3 -46 -45 -3 -42 -4 -43
-39 -43 l-35 0 4 57 c6 75 36 103 109 103 l49 0 0 -34z m95 -163 c-1 -75 -29
-103 -102 -103 l-54 0 3 33 c3 29 6 32 43 37 39 5 40 6 43 48 3 42 4 43 35 40
32 -3 32 -4 32 -55z m10637 -25 c-3 -61 -12 -60 -12 2 0 29 3 50 7 47 3 -4 6
-26 5 -49z m671 9 c14 11 17 12 10 2 -10 -12 -9 -20 4 -40 16 -24 16 -24 -3
-6 -12 9 -23 17 -27 17 -3 0 -8 -8 -10 -17 -3 -10 -4 7 -4 37 0 33 2 42 4 22
4 -34 5 -34 26 -15z m-501 -8 c-3 -20 0 -34 9 -40 11 -7 11 -9 -2 -9 -12 0
-18 11 -21 41 -4 41 -1 52 12 44 4 -2 5 -18 2 -36z m50 0 c-3 -20 0 -34 9 -40
11 -7 11 -9 -2 -9 -12 0 -18 11 -22 38 -4 39 -1 55 12 48 4 -3 6 -19 3 -37z
m250 23 c-16 -5 -15 -59 1 -65 7 -3 5 -6 -5 -6 -15 -1 -18 7 -18 44 0 38 3 43
17 38 11 -4 12 -8 5 -11z m-525 -3 c-9 -6 -14 -15 -11 -21 4 -7 2 -8 -5 -4
-14 9 3 36 23 36 6 0 3 -5 -7 -11z m98 0 c11 -16 1 -19 -13 -3 -7 8 -8 14 -3
14 5 0 13 -5 16 -11z m253 -1 c7 -7 12 -16 12 -22 0 -5 -6 -2 -13 9 -17 23
-34 13 -34 -19 0 -18 6 -26 23 -29 20 -4 19 -4 -3 -3 -21 1 -29 7 -31 24 -3
22 13 52 27 52 4 0 12 -5 19 -12z m60 0 c-9 -7 -19 -26 -21 -43 -4 -27 -4 -27
-6 7 -1 34 7 45 33 47 6 1 2 -5 -6 -11z m50 5 c-24 -6 -23 -20 2 -33 30 -16
25 -40 -7 -39 -24 2 -25 2 -5 6 27 5 28 10 0 32 -23 19 -17 42 10 40 15 -1 15
-2 0 -6z m142 -8 c17 -20 4 -65 -18 -65 -22 0 -42 19 -42 40 0 35 38 51 60 25z
m58 4 c-10 -5 -22 -17 -27 -27 -6 -9 -11 -12 -11 -5 0 15 28 43 43 43 7 0 4
-5 -5 -11z m256 -5 c9 -8 16 -20 16 -26 0 -6 -8 0 -18 12 -22 27 -42 19 -42
-17 0 -22 4 -25 26 -20 16 3 22 1 16 -5 -30 -30 -69 25 -42 58 16 18 25 18 44
-2z m124 3 c6 -5 11 -23 11 -40 l-2 -32 -6 35 c-4 22 -12 35 -21 35 -9 0 -17
-13 -21 -35 -6 -35 -6 -35 -8 -4 0 16 -5 34 -10 40 -12 11 38 12 57 1z m-1390
-28 c-3 -8 -7 -3 -11 10 -4 17 -3 21 5 13 5 -5 8 -16 6 -23z m42 28 c0 -10
-33 -68 -36 -64 -6 6 20 67 28 67 4 0 8 -2 8 -3z m127 -20 l12 28 -6 -30 c-8
-43 -21 -52 -29 -22 -3 15 -10 24 -15 21 -11 -6 -12 10 -1 20 4 5 11 -4 16
-18 l10 -26 13 27z m43 -17 c4 0 10 10 14 23 5 18 8 20 16 7 5 -8 10 -19 10
-25 0 -5 -4 -3 -9 4 -8 12 -11 9 -16 -12 -4 -15 -11 -27 -15 -27 -9 0 -20 37
-19 60 1 8 4 5 6 -7 2 -13 8 -23 13 -23z m330 5 c0 -32 -2 -35 -30 -35 -16 0
-30 4 -30 8 0 5 10 8 23 8 17 -1 23 5 25 27 5 38 12 34 12 -8z m612 10 c-3
-19 1 -27 19 -34 24 -10 24 -10 2 -10 -24 -1 -42 37 -28 58 10 17 13 13 7 -14z
m151 -7 c-8 -46 -13 -48 -13 -5 0 21 4 37 10 37 5 0 7 -14 3 -32z m-1206 0
c-3 -8 -6 -5 -6 6 -1 11 2 17 5 13 3 -3 4 -12 1 -19z m-32 -19 c-6 -17 -9 -19
-16 -8 -5 8 -9 19 -9 24 0 6 5 3 10 -5 8 -13 10 -12 10 4 0 11 3 17 6 13 3 -3
3 -15 -1 -28z m201 -5 c-4 -9 -9 -15 -11 -12 -3 3 -3 13 1 22 4 9 9 15 11 12
3 -3 3 -13 -1 -22z m109 5 c0 -8 -11 -14 -28 -15 -26 -1 -26 -1 -2 3 23 4 24
7 13 20 -11 14 -11 15 2 11 8 -2 15 -11 15 -19z m-263 -11 c-7 -7 -12 -8 -12
-2 0 14 12 26 19 19 2 -3 -1 -11 -7 -17z m904 -6 c-10 -2 -22 0 -28 6 -6 6 0
7 19 4 21 -5 23 -7 9 -10z"/>
<path d="M13187 630 c-3 -12 0 -20 8 -20 8 0 11 8 8 20 -3 11 -7 20 -8 20 -1
0 -5 -9 -8 -20z"/>
<path d="M13520 621 c0 -43 9 -55 34 -45 11 4 16 19 16 45 0 35 -3 39 -25 39
-22 0 -25 -4 -25 -39z"/>
<path d="M13781 656 c-7 -8 -11 -30 -9 -48 2 -25 8 -33 23 -33 17 0 20 7 20
44 0 47 -14 62 -34 37z"/>
<path d="M13866 611 c-11 -18 6 -42 28 -39 29 4 29 42 -1 46 -11 2 -24 -1 -27
-7z"/>
<path d="M13959 646 c-16 -34 -4 -76 21 -76 13 0 22 9 26 26 7 28 -9 74 -26
74 -6 0 -15 -11 -21 -24z"/>
<path d="M14050 644 c-13 -34 -2 -74 20 -74 29 0 42 64 18 88 -18 18 -27 15
-38 -14z"/>
<path d="M14144 659 c-9 -15 11 -33 30 -26 9 4 13 13 10 22 -7 17 -30 20 -40
4z"/>
<path d="M14140 590 c0 -16 5 -21 23 -18 12 2 22 10 22 18 0 8 -10 16 -22 18
-18 3 -23 -2 -23 -18z"/>
<path d="M1792 518 c-7 -7 -12 -22 -12 -35 0 -21 4 -23 50 -23 46 0 50 2 50
25 0 38 -60 61 -88 33z"/>
<path d="M3461 564 c0 -11 3 -14 6 -6 3 7 2 16 -1 19 -3 4 -6 -2 -5 -13z"/>
<path d="M13984 376 c-9 -24 4 -48 23 -44 12 2 18 12 18 28 0 29 -32 41 -41
16z"/>
</g>
</svg>
